<svg id="Capa_1" data-name="Capa 1" xmlns="http://www.w3.org/2000/svg" viewBox="0 0 339.47 400"><path d="M98.62,177.2a33.53,33.53,0,0,1-33.49-33.49c0-18.46,15-23.48,33.49-23.48s33.5,5,33.5,23.48A33.54,33.54,0,0,1,98.62,177.2Zm0-51.09c-15.22,0-27.6,2.38-27.6,17.6a27.61,27.61,0,0,0,55.22,0C126.24,128.49,113.85,126.11,98.62,126.11Z"/><path d="M241.7,177.2a33.54,33.54,0,0,1-33.51-33.49c0-18.46,15-23.48,33.51-23.48s33.48,5,33.48,23.48A33.53,33.53,0,0,1,241.7,177.2Zm0-51.09c-15.23,0-27.62,2.38-27.62,17.6a27.61,27.61,0,0,0,55.22,0C269.3,128.49,256.92,126.11,241.7,126.11Z"/><circle cx="98.62" cy="143.71" r="15.4"/><circle cx="241.69" cy="143.71" r="15.4"/><path d="M172.55,186.38c-4.09,0-5.39-2-6.66-5.28-1.73-4.44-3.48-3.38-4.25-6.7-.81-3.49,7.48-5.35,10.91-5.35,3.25,0,7.61,2.3,10.45,4.31,3.11,2.21.85,5.1-2.42,7.14C177.91,182.17,177.25,186.38,172.55,186.38Zm-5.21-13.15a1.32,1.32,0,0,0-.77,1.91c1.38,2.51,2.68,6.87,5.53,6.87,2.46,0,5.15-2.77,6.92-5a2.18,2.18,0,0,0-1-3.46,29.83,29.83,0,0,0-5.85-1.35A22.43,22.43,0,0,0,167.34,173.23Z"/><path d="M285.34,64.34a18.91,18.91,0,0,0-18.87,18.88,18.64,18.64,0,0,0,.4,3.8h0a18.09,18.09,0,0,0,1.75,5l.67,1.24,1.37.27a26.62,26.62,0,0,1,14.56,7.58l.56.58.34.32h1.45l.18,0a18.34,18.34,0,0,0,4.74-1.28,18.87,18.87,0,0,0-7.16-36.33Zm3,31.53a31.33,31.33,0,0,0-6.83-5A34.51,34.51,0,0,0,273.3,88a12.69,12.69,0,0,1-.94-4.82,13,13,0,1,1,16,12.65Z"/><path d="M292.5,100.67a18.34,18.34,0,0,1-4.74,1.28l-.18,0h-1.45l-.34-.32c10,11.2,10.5,32.66,1.44,62.15-2.65,8.57-13.75,37-46,42a63.58,63.58,0,0,1-16.11.46c-1.47-.1-3.1-.32-5.18-.63l-1.23-.18c-6.79-1-13.34-1.84-19.54-2.37.06-1.2.1-2.42.1-3.63,0-24.31-11.5-43.33-26.17-43.33s-26.17,19-26.17,43.33c0,.76,0,1.55,0,2.31,0,.51,0,1,.08,1.49,0,.67.06,1.32.12,2l-7.44,1.19c-2.86.47-5.74.94-8.71,1.41l-4.82.69A156.51,156.51,0,0,1,105,210.23c-31.66,0-49.53-14.85-56.23-46.67C44,141.28,47.24,122.9,58,110.4a46.66,46.66,0,0,1,12.13-9.88l1-.53A58.8,58.8,0,0,1,98.83,93.2c10,0,19,2.47,24.54,6.67,25.52,19.24,58.85,20.6,96.38,3.86C240.42,94.53,258,91,270.67,93.49l-1.37-.27L268.63,92a18.09,18.09,0,0,1-1.75-5h0c-13.3-1.2-29.92,2.61-49.52,11.34-35.46,15.79-66.73,14.69-90.44-3.2-11.24-8.47-34.31-11.3-54.36-2.41v-.06a18.87,18.87,0,1,0-22.5,18.52c-7,10.41-12.59,27.38-7.08,53.57,7,33.27,26.13,50.08,58.32,51.25-3.49,15.5-14.56,69.13-3.77,82.78a9.23,9.23,0,0,0,7.45,3.73,37.85,37.85,0,0,1,9,.92c6.69,1.59,9.49,5.06,13,9.46l.18.21c4,4.95,8.79,11,20.77,14.42-8.82,10.73-16.81,26.76-15.3,34.86a6.81,6.81,0,0,0,3.89,5.28A14.44,14.44,0,0,0,142.6,369a17.37,17.37,0,0,0,9.22-2.9c10.45-6.61,18.87-23.7,20.24-35.71h.9c1.95,0,3.87-.07,5.71-.23,5.22,13.2,17.38,29.8,26.05,32.21a8.81,8.81,0,0,0,2.32.33,6.46,6.46,0,0,0,4.21-1.49,14.9,14.9,0,0,0,5.38-11.16c.39-9.73-6.44-20.69-13.3-28.23,5.71-4.06,9.63-9,12.89-13,.74-.92,1.47-1.83,2.17-2.67a25.31,25.31,0,0,1,5.36-5.14,8.87,8.87,0,0,1,3.12-1.27c16.83-3.28,23.38-49.65,18.12-88.65,22.68-4.65,40.45-21.5,47.85-45.61C301.86,136.24,301.7,114,292.5,100.67Zm-251.81-8a13,13,0,1,1,26,0A12.17,12.17,0,0,1,66.23,96a58.94,58.94,0,0,0-6.55,4.75,51.2,51.2,0,0,0-5.29,4.91c-.24,0-.48,0-.71,0A13,13,0,0,1,40.69,92.69Zm74.74,205.06h-.08A43.55,43.55,0,0,0,105,296.66a3.36,3.36,0,0,1-2.84-1.49c-8.3-10.5.49-58.64,5.2-79.08a165.31,165.31,0,0,0,19.16-1.61c-.08,3-.06,6.73.06,11.38C127.14,250.19,120.43,279.55,115.43,297.75Zm57.67-135.7c11,0,20.28,17.15,20.28,37.45,0,1,0,2.06-.07,3.06v.16h0a193.7,193.7,0,0,0-40.28,1.7h0c0-.25,0-.53,0-.78s0-.32,0-.47,0-.59,0-.89,0-.55,0-.82c0-.65,0-1.31,0-2C152.82,179.2,162.12,162.05,173.1,162.05Zm-24.42,199.1c-3.47,2.2-6.65,2.59-9.71,1.2-.1-.06-.37-.18-.53-1-1.14-6,7.08-22.46,16-32.29a91.48,91.48,0,0,0,11.73,1.24C164.8,340.64,157.23,355.74,148.68,361.15Zm62.06-11.32a8.8,8.8,0,0,1-3.23,6.87l0,0c-.08.06-.32.26-1.18,0-5.79-1.61-16.46-15.36-21.6-27.29a46.69,46.69,0,0,0,13.5-4.45C204.72,331.91,211.06,342.09,210.74,349.83Zm1.48-88.8c-3.77,32.82.29,28.15-2.79,46.83a47.26,47.26,0,0,1-11,10.22l-1.19.72a41.56,41.56,0,0,1-16.95,5.34h0a63.94,63.94,0,0,1-7.34.41c-.58,0-1.17,0-1.76,0l-1.73,0h0A93.42,93.42,0,0,1,154,323h0c-13.52-2.69-17.93-8.2-22.21-13.51l-.18-.22c-.27-.35-.57-.69-.84-1,11.06-29.05,3.35-81.58,1.22-94.49,3-.45,5.86-.94,8.73-1.41,3.37-.55,6.72-1.1,10.1-1.61l2.82-.41a188.16,188.16,0,0,1,42.2-1.49c3.94.27,8.08.68,12.33,1.21h0C212,212.6,216.79,221.35,212.22,261Zm13.51,33a14.16,14.16,0,0,0-4.94,2c-6.89-15.22,1.82-42.29,5.51-60.52,2-10,1.33-17.59-.33-23.18a69.31,69.31,0,0,0,13.24-.2C244.6,252.28,236.44,291.93,225.73,294Z"/></svg>