<svg width="60" height="60" viewBox="0 0 60 60" fill="none" xmlns="http://www.w3.org/2000/svg">
<path d="M50 0C55.5228 6.44258e-07 60 4.47715 60 10V50C60 55.5228 55.5228 60 50 60H10C4.47715 60 1.61069e-07 55.5228 0 50V10C6.44277e-07 4.47715 4.47715 1.61064e-07 10 0H50ZM13.0605 10.9395C12.4748 10.3537 11.5252 10.3537 10.9395 10.9395C10.3537 11.5252 10.3537 12.4748 10.9395 13.0605L27.5596 29.6807L10.9395 46.3018L10.8369 46.416C10.3564 47.0051 10.3903 47.8737 10.9395 48.4229C11.4885 48.9719 12.3571 49.0065 12.9463 48.5264L13.0605 48.4229L29.6807 31.8018L46.2949 48.416L46.4082 48.5186C46.9974 48.9991 47.8668 48.9652 48.416 48.416C48.9652 47.8668 48.9991 46.9974 48.5186 46.4082L48.416 46.2949L31.8018 29.6807L48.416 13.0674C49.0016 12.4816 49.0017 11.532 48.416 10.9463C47.8303 10.3606 46.8807 10.3607 46.2949 10.9463L29.6807 27.5596L13.0605 10.9395Z" fill="#D9D9D9"/>
</svg>
