<svg width="1920" height="1208" viewBox="0 0 1920 1208" fill="none" xmlns="http://www.w3.org/2000/svg" xmlns:xlink="http://www.w3.org/1999/xlink">
<rect width="1920" height="1208" transform="matrix(-1 0 0 1 1920 0)" fill="#282828"/>
<rect width="1920" height="1208" transform="matrix(-1 0 0 1 1920 0)" fill="url(#pattern0_727_766)"/>
<defs>
<pattern id="pattern0_727_766" patternUnits="userSpaceOnUse" viewBox="-4988 1601.85 654.1 506.85" width="58.255780375202448%" height="71.747808755944135%" x="779.595" y="324.415" patternContentUnits="objectBoundingBox">
<g id="pattern0_727_766_inner">
<g clip-path="url(#clip0_727_766)">
<path opacity="0.7" d="M-4779.19 1407.93L-4797.23 1389.88L-4779.58 1371.45C-4776.72 1368.47 -4776.82 1363.74 -4779.8 1360.88L-4780.63 1360.08C-4783.61 1357.22 -4788.34 1357.32 -4791.2 1360.3L-4808.62 1378.48L-4826.42 1360.67C-4829.34 1357.75 -4834.07 1357.75 -4836.99 1360.67L-4837.81 1361.49C-4840.73 1364.41 -4840.73 1369.15 -4837.81 1372.07L-4819.77 1390.12L-4837.43 1408.54C-4840.28 1411.52 -4840.18 1416.26 -4837.2 1419.12L-4836.37 1419.92C-4833.39 1422.78 -4828.66 1422.67 -4825.8 1419.69L-4808.38 1401.51L-4790.58 1419.32C-4787.66 1422.25 -4782.93 1422.25 -4780.01 1419.32L-4779.19 1418.51C-4776.27 1415.59 -4776.27 1410.85 -4779.19 1407.93Z" fill="#F5F7FF"/>
</g>
<g clip-path="url(#clip1_727_766)">
<path d="M-4927.19 1306.93L-4945.23 1288.88L-4927.58 1270.45C-4924.72 1267.47 -4924.82 1262.74 -4927.8 1259.88L-4928.63 1259.08C-4931.61 1256.22 -4936.34 1256.32 -4939.2 1259.3L-4956.62 1277.48L-4974.42 1259.67C-4977.34 1256.75 -4982.07 1256.75 -4984.99 1259.67L-4985.81 1260.49C-4988.73 1263.41 -4988.73 1268.15 -4985.81 1271.07L-4967.77 1289.12L-4985.43 1307.54C-4988.28 1310.52 -4988.18 1315.26 -4985.2 1318.12L-4984.37 1318.92C-4981.39 1321.78 -4976.66 1321.67 -4973.8 1318.69L-4956.38 1300.51L-4938.58 1318.32C-4935.66 1321.25 -4930.93 1321.25 -4928.01 1318.32L-4927.19 1317.51C-4924.27 1314.59 -4924.27 1309.85 -4927.19 1306.93Z" fill="#F5F7FF"/>
</g>
<g clip-path="url(#clip2_727_766)">
<path opacity="0.5" d="M-4779.19 1245.15L-4797.23 1227.38L-4779.58 1209.24C-4776.72 1206.31 -4776.82 1201.65 -4779.8 1198.83L-4780.63 1198.05C-4783.61 1195.23 -4788.34 1195.33 -4791.2 1198.27L-4808.62 1216.16L-4826.42 1198.63C-4829.34 1195.75 -4834.07 1195.75 -4836.99 1198.63L-4837.81 1199.44C-4840.73 1202.31 -4840.73 1206.97 -4837.81 1209.85L-4819.77 1227.62L-4837.43 1245.75C-4840.28 1248.69 -4840.18 1253.35 -4837.2 1256.16L-4836.37 1256.95C-4833.39 1259.76 -4828.66 1259.66 -4825.8 1256.73L-4808.38 1238.83L-4790.58 1256.37C-4787.66 1259.24 -4782.93 1259.24 -4780.01 1256.37L-4779.19 1255.56C-4776.27 1252.69 -4776.27 1248.03 -4779.19 1245.15Z" fill="#F5F7FF"/>
</g>
<g clip-path="url(#clip3_727_766)">
<path opacity="0.1" d="M-4927.19 1144.15L-4945.23 1126.38L-4927.58 1108.24C-4924.72 1105.31 -4924.82 1100.65 -4927.8 1097.83L-4928.63 1097.05C-4931.61 1094.23 -4936.34 1094.33 -4939.2 1097.27L-4956.62 1115.16L-4974.42 1097.63C-4977.34 1094.75 -4982.07 1094.75 -4984.99 1097.63L-4985.81 1098.44C-4988.73 1101.31 -4988.73 1105.97 -4985.81 1108.85L-4967.77 1126.62L-4985.43 1144.75C-4988.28 1147.69 -4988.18 1152.35 -4985.2 1155.16L-4984.37 1155.95C-4981.39 1158.76 -4976.66 1158.66 -4973.8 1155.73L-4956.38 1137.83L-4938.58 1155.37C-4935.66 1158.24 -4930.93 1158.24 -4928.01 1155.37L-4927.19 1154.56C-4924.27 1151.69 -4924.27 1147.03 -4927.19 1144.15Z" fill="#F5F7FF"/>
</g>
</g>
<use xlink:href="#pattern0_727_766_inner" transform="translate(0 506.85)"/>
<use xlink:href="#pattern0_727_766_inner" transform="translate(327.05 253.425)"/>
<use xlink:href="#pattern0_727_766_inner" transform="translate(327.05 760.275)"/>
</pattern><clipPath id="clip0_727_766">
<rect width="63" height="64" fill="white" transform="translate(-4840 1358)"/>
</clipPath>
<clipPath id="clip1_727_766">
<rect width="63" height="64" fill="white" transform="translate(-4988 1257)"/>
</clipPath>
<clipPath id="clip2_727_766">
<rect width="63" height="63" fill="white" transform="translate(-4840 1196)"/>
</clipPath>
<clipPath id="clip3_727_766">
<rect width="63" height="63" fill="white" transform="translate(-4988 1095)"/>
</clipPath>
</defs>
</svg>
