<?xml version="1.0" encoding="utf-8"?>
<!-- Generator: Adobe Illustrator 25.2.1, SVG Export Plug-In . SVG Version: 6.00 Build 0)  -->
<svg version="1.1" id="Capa_1" xmlns="http://www.w3.org/2000/svg" xmlns:xlink="http://www.w3.org/1999/xlink" x="0px" y="0px"
	 viewBox="0 0 72 72" style="enable-background:new 0 0 72 72;" xml:space="preserve">
<style type="text/css">
	.st0{fill:#282828;}
</style>
<path class="st0" d="M58.6,0.3H14C6.5,0.3,0.3,6.5,0.3,14v44.7c0,7.5,6.2,13.7,13.7,13.7h44.6c7.5,0,13.6-6.1,13.7-13.7V14
	C72.3,6.5,66.2,0.4,58.6,0.3z M36.7,36.4c-0.1,0.4-0.3,0.8-0.5,1.1c-0.2,0.3-0.4,0.7-0.6,1c-0.2,0.3-0.5,0.6-0.7,0.8
	c-0.5,0.5-1.1,0.9-1.8,1.2c-0.2,0.1-0.5,0.2-0.8,0.4c-0.8,0.3-1.7,0.5-2.6,0.7c-0.2,0-0.5,0.1-0.7,0.1c-2.1,0.3-4.5,0.2-6.7,0.2
	h-0.8v10h-6.2V20.2h12.5c0.3,0,0.8,0,1.3,0.1c0.2,0,0.3,0.1,0.5,0.1c0.4,0.1,0.8,0.2,1.3,0.3c1.2,0.4,2.4,1,3.5,2.2
	c1.7,1.7,3,4.5,3,9.1C37.4,33.7,37.1,35.2,36.7,36.4z M49.1,52.2c-4,0-6.2-0.7-7.9-1.8v-5.2c1.6,1.6,10.5,4.8,10.5,0
	c0-4.8-10.5-2.3-10.5-11.2S57,28.3,57,28.3v5.2c-1.8-0.9-3.7-1.4-5.7-1.5c-3,0-5.5,2.2-2.5,4.3c3,2.2,9.4,3.3,9.4,9.7
	C58.2,51.1,52.2,52.2,49.1,52.2z"/>
<path class="st0" d="M31.4,31c0,3.4-2,4.6-4.7,4.6h-5.2v-9.4h4C29.5,26.2,31.4,27.6,31.4,31z"/>
<path class="st0" d="M31.4,31c0,3.4-2,4.6-4.7,4.6h-5.2v-9.4h4C29.5,26.2,31.4,27.6,31.4,31z"/>
<path class="st0" d="M29.6,20.3c-0.7-0.1-1.3-0.2-1.8-0.2h-7.5v0h7.5C28.3,20.1,28.9,20.2,29.6,20.3z"/>
</svg>
