<?xml version="1.0" encoding="utf-8"?>
<!-- Generator: Adobe Illustrator 25.2.1, SVG Export Plug-In . SVG Version: 6.00 Build 0)  -->
<svg version="1.1" id="Capa_1" xmlns="http://www.w3.org/2000/svg" xmlns:xlink="http://www.w3.org/1999/xlink" x="0px" y="0px"
	 viewBox="0 0 72 72" style="enable-background:new 0 0 72 72;" xml:space="preserve">
<style type="text/css">
	.st0{fill:#282828;}
</style>
<path class="st0" d="M43.6,32.1c-3.5,0-6.8,1.8-6.8,7.9s3.4,6.8,7,6.8c0.8,0,1.7,0,2.4-0.1V31.8C45.3,32,44.5,32.1,43.6,32.1z
	 M43.6,32.1c-3.5,0-6.8,1.8-6.8,7.9s3.4,6.8,7,6.8c0.8,0,1.7,0,2.4-0.1V31.8C45.3,32,44.5,32.1,43.6,32.1z M43.6,32.1
	c-3.5,0-6.8,1.8-6.8,7.9s3.4,6.8,7,6.8c0.8,0,1.7,0,2.4-0.1V31.8C45.3,32,44.5,32.1,43.6,32.1z M43.6,32.1c-3.5,0-6.8,1.8-6.8,7.9
	s3.4,6.8,7,6.8c0.8,0,1.7,0,2.4-0.1V31.8C45.3,32,44.5,32.1,43.6,32.1z M58.3,0H13.7C6.1,0,0,6.1,0,13.7v44.7C0,65.9,6.1,72,13.7,72
	h44.7C65.9,72,72,65.9,72,58.3V13.7C72,6.1,65.9,0,58.3,0z M26.1,51.4h-7.2V19.4h7.2V51.4z M52.3,48.7c0,3.5-6.2,2.7-6.2,2.7H42
	c-2.6,0-11.6,0.5-11.6-12.3s11.3-12,13.5-12h2.2v-10h6.2L52.3,48.7z M36.8,40c0,6.1,3.4,6.8,7,6.8c0.8,0,1.7,0,2.4-0.1V31.8
	c-0.8,0.2-1.7,0.3-2.5,0.3C40.1,32.1,36.8,33.9,36.8,40z M43.6,32.1c-3.5,0-6.8,1.8-6.8,7.9s3.4,6.8,7,6.8c0.8,0,1.7,0,2.4-0.1V31.8
	C45.3,32,44.5,32.1,43.6,32.1L43.6,32.1z M43.6,32.1c-3.5,0-6.8,1.8-6.8,7.9s3.4,6.8,7,6.8c0.8,0,1.7,0,2.4-0.1V31.8
	C45.3,32,44.5,32.1,43.6,32.1L43.6,32.1z M43.6,32.1c-3.5,0-6.8,1.8-6.8,7.9s3.4,6.8,7,6.8c0.8,0,1.7,0,2.4-0.1V31.8
	C45.3,32,44.5,32.1,43.6,32.1L43.6,32.1z M43.6,32.1c-3.5,0-6.8,1.8-6.8,7.9s3.4,6.8,7,6.8c0.8,0,1.7,0,2.4-0.1V31.8
	C45.3,32,44.5,32.1,43.6,32.1L43.6,32.1z"/>
</svg>
