<?xml version="1.0" encoding="utf-8"?>
<!-- Generator: Adobe Illustrator 25.2.1, SVG Export Plug-In . SVG Version: 6.00 Build 0)  -->
<svg version="1.1" id="Capa_1" xmlns="http://www.w3.org/2000/svg" xmlns:xlink="http://www.w3.org/1999/xlink" x="0px" y="0px"
	 viewBox="0 0 72 73.2" style="enable-background:new 0 0 72 73.2;" xml:space="preserve">
<style type="text/css">
	.st0{fill:#282828;}
</style>
<path class="st0" d="M24.3,1h24.4c6.5,0,11.8,5.3,11.8,11.8v0c0,6.5-5.3,11.8-11.8,11.8H24.3c-6.5,0-11.8-5.3-11.8-11.8v0
	C12.5,6.2,17.8,1,24.3,1z"/>
<path class="st0" d="M23.9,24.9h12.6l0,0v23.5l0,0H23.9c-6.5,0-11.8-5.3-11.8-11.8l0,0C12.1,30.2,17.4,24.9,23.9,24.9z"/>
<path class="st0" d="M23.9,49.4h12.6l0,0v11.8c0,6.5-5.2,11.8-11.7,11.8c0,0,0,0,0,0h-0.9c-6.5,0-11.8-5.3-11.8-11.8c0,0,0,0,0,0
	l0,0C12.1,54.7,17.4,49.4,23.9,49.4z"/>
<circle class="st0" cx="48.2" cy="36.6" r="11.8"/>
</svg>
