<?xml version="1.0" encoding="utf-8"?>
<!-- Generator: Adobe Illustrator 25.2.1, SVG Export Plug-In . SVG Version: 6.00 Build 0)  -->
<svg version="1.1" id="Capa_1" xmlns="http://www.w3.org/2000/svg" xmlns:xlink="http://www.w3.org/1999/xlink" x="0px" y="0px"
	 viewBox="0 0 72 73" style="enable-background:new 0 0 72 73;" xml:space="preserve">
<style type="text/css">
	.st0{fill:#282828;}
</style>
<g>
	<polygon class="st0" points="18.2,6.8 21.5,6.8 21.5,10.5 25,10.5 25,0 21.5,0 21.5,4.1 18.2,4.1 18.2,0 14.7,0 14.7,10.5 
		18.2,10.5 	"/>
	<polygon class="st0" points="29.1,10.5 32.6,10.5 32.6,4.1 35.5,4.1 35.5,0 32.6,0 29.1,0 26.4,0 26.4,4.1 29.1,4.1 	"/>
	<polygon class="st0" points="57.3,10.5 57.3,6.8 52.2,6.8 52.2,0 49.5,0 49.5,6.8 49.5,10.5 52.2,10.5 	"/>
	<polygon class="st0" points="39.9,6 42.3,8.8 44.6,5.8 44.6,10.5 48.1,10.5 48.1,0 44.6,0 42.1,3.1 39.9,0 36.4,0 36.4,10.5 
		39.9,10.5 	"/>
</g>
<path class="st0" d="M9.5,14.4l5.3,50.4c0,0,17.8,7.2,21.2,7.2s21.4-7.1,21.4-7.1l5.1-50.5H9.5z M52.3,32.2H27.5v7H51l-1.4,19.5
	L36,63l-13.1-5l-0.6-9h6.3v4.8l7.4,2.3l7.6-2.3l0.5-8.3l-22.5-1l-1.8-19.2h32.5V32.2z"/>
</svg>
