<?xml version="1.0" encoding="utf-8"?>
<!-- Generator: Adobe Illustrator 25.2.1, SVG Export Plug-In . SVG Version: 6.00 Build 0)  -->
<svg version="1.1" id="Capa_1" xmlns="http://www.w3.org/2000/svg" xmlns:xlink="http://www.w3.org/1999/xlink" x="0px" y="0px"
	 viewBox="0 0 72 72" style="enable-background:new 0 0 72 72;" xml:space="preserve">
<style type="text/css">
	.st0{fill:#282828;}
</style>
<path class="st0" d="M58.3,0.3H13.7C6.1,0.4,0,6.5,0,14v44.7c0,7.5,6.1,13.6,13.7,13.7h44.7c7.5,0,13.6-6.1,13.7-13.7V14
	C72,6.5,65.9,0.4,58.3,0.3z M37.6,50.8l-2.7-7.1H24.3l-2.3,7.1h-7l11.2-32.1h7.5l11.2,32.1H37.6z M54.2,50.8h-6.8v-24h6.8V50.8z
	 M50.8,23.1c-1.9,0-3.4-1.5-3.4-3.4s1.5-3.4,3.4-3.4s3.4,1.5,3.4,3.4S52.6,23.1,50.8,23.1L50.8,23.1z"/>
<polygon class="st0" points="24.9,37.4 33.6,37.4 29,24.9 "/>
</svg>
