<svg id="Capa_1" data-name="Capa 1" xmlns="http://www.w3.org/2000/svg" viewBox="0 0 176.85 200"><defs><style>.cls-1{fill:#282828;}</style></defs><path class="cls-1" d="M41.89,74.07a22,22,0,1,1,22-22A22,22,0,0,1,41.89,74.07Zm0-40.09A18.12,18.12,0,1,0,60,52.1,18.14,18.14,0,0,0,41.89,34Z"/><path class="cls-1" d="M135.8,74.07a22,22,0,1,1,22-22A22,22,0,0,1,135.8,74.07Zm0-40.09A18.12,18.12,0,1,0,153.92,52.1,18.14,18.14,0,0,0,135.8,34Z"/><path class="cls-1" d="M41.89,74.07a22,22,0,1,1,22-22A22,22,0,0,1,41.89,74.07Zm0-40.09A18.12,18.12,0,1,0,60,52.1,18.14,18.14,0,0,0,41.89,34Z"/><circle class="cls-1" cx="41.89" cy="52.1" r="10.11"/><circle class="cls-1" cx="135.8" cy="52.1" r="10.11"/><path class="cls-1" d="M135.8,74.07a22,22,0,1,1,22-22A22,22,0,0,1,135.8,74.07Zm0-40.09A18.12,18.12,0,1,0,153.92,52.1,18.14,18.14,0,0,0,135.8,34Z"/><path class="cls-1" d="M90.41,80.11c-2.68,0-3.54-1.34-4.37-3.47-1.14-2.91-2.29-2.22-2.79-4.4s4.91-3.51,7.16-3.51,5,1.51,6.86,2.83c2,1.45.56,3.35-1.58,4.68C93.93,77.34,93.5,80.11,90.41,80.11ZM87,71.47a.87.87,0,0,0-.5,1.25c.91,1.65,1.76,4.52,3.63,4.52,1.62,0,3.38-1.83,4.54-3.27A1.43,1.43,0,0,0,94,71.7a19.36,19.36,0,0,0-3.83-.89A14.75,14.75,0,0,0,87,71.47Z"/><path class="cls-1" d="M41.88,30.12a22,22,0,1,0,22,22A22,22,0,0,0,41.88,30.12Zm0,40.09A18.12,18.12,0,1,1,60,52.1,18.13,18.13,0,0,1,41.88,70.21ZM135.8,30.12a22,22,0,1,0,22,22A22,22,0,0,0,135.8,30.12Zm0,40.09A18.12,18.12,0,1,1,153.92,52.1,18.14,18.14,0,0,1,135.8,70.21Zm0-40.09a22,22,0,1,0,22,22A22,22,0,0,0,135.8,30.12Zm0,40.09A18.12,18.12,0,1,1,153.92,52.1,18.14,18.14,0,0,1,135.8,70.21ZM41.88,30.12a22,22,0,1,0,22,22A22,22,0,0,0,41.88,30.12Zm0,40.09A18.12,18.12,0,1,1,60,52.1,18.13,18.13,0,0,1,41.88,70.21Zm0-40.09a22,22,0,1,0,22,22A22,22,0,0,0,41.88,30.12Zm0,40.09A18.12,18.12,0,1,1,60,52.1,18.13,18.13,0,0,1,41.88,70.21ZM135.8,30.12a22,22,0,1,0,22,22A22,22,0,0,0,135.8,30.12Zm0,40.09A18.12,18.12,0,1,1,153.92,52.1,18.14,18.14,0,0,1,135.8,70.21Zm0-40.09a22,22,0,1,0,22,22A22,22,0,0,0,135.8,30.12Zm0,40.09A18.12,18.12,0,1,1,153.92,52.1,18.14,18.14,0,0,1,135.8,70.21ZM41.88,30.12a22,22,0,1,0,22,22A22,22,0,0,0,41.88,30.12Zm0,40.09A18.12,18.12,0,1,1,60,52.1,18.13,18.13,0,0,1,41.88,70.21Zm0-40.09a22,22,0,1,0,22,22A22,22,0,0,0,41.88,30.12Zm0,40.09A18.12,18.12,0,1,1,60,52.1,18.13,18.13,0,0,1,41.88,70.21ZM135.8,30.12a22,22,0,1,0,22,22A22,22,0,0,0,135.8,30.12Zm0,40.09A18.12,18.12,0,1,1,153.92,52.1,18.14,18.14,0,0,1,135.8,70.21Zm0-40.09a22,22,0,1,0,22,22A22,22,0,0,0,135.8,30.12Zm0,40.09A18.12,18.12,0,1,1,153.92,52.1,18.14,18.14,0,0,1,135.8,70.21ZM41.88,30.12a22,22,0,1,0,22,22A22,22,0,0,0,41.88,30.12Zm0,40.09A18.12,18.12,0,1,1,60,52.1,18.13,18.13,0,0,1,41.88,70.21Zm0-40.09a22,22,0,1,0,22,22A22,22,0,0,0,41.88,30.12Zm0,40.09A18.12,18.12,0,1,1,60,52.1,18.13,18.13,0,0,1,41.88,70.21ZM135.8,30.12a22,22,0,1,0,22,22A22,22,0,0,0,135.8,30.12Zm0,40.09A18.12,18.12,0,1,1,153.92,52.1,18.14,18.14,0,0,1,135.8,70.21ZM41.88,30.12a22,22,0,1,0,22,22A22,22,0,0,0,41.88,30.12Zm0,40.09A18.12,18.12,0,1,1,60,52.1,18.13,18.13,0,0,1,41.88,70.21ZM135.8,30.12a22,22,0,1,0,22,22A22,22,0,0,0,135.8,30.12Zm0,40.09A18.12,18.12,0,1,1,153.92,52.1,18.14,18.14,0,0,1,135.8,70.21Zm0-40.09a22,22,0,1,0,22,22A22,22,0,0,0,135.8,30.12Zm0,40.09A18.12,18.12,0,1,1,153.92,52.1,18.14,18.14,0,0,1,135.8,70.21ZM41.88,30.12a22,22,0,1,0,22,22A22,22,0,0,0,41.88,30.12Zm0,40.09A18.12,18.12,0,1,1,60,52.1,18.13,18.13,0,0,1,41.88,70.21ZM135.8,30.12a22,22,0,1,0,22,22A22,22,0,0,0,135.8,30.12Zm0,40.09A18.12,18.12,0,1,1,153.92,52.1,18.14,18.14,0,0,1,135.8,70.21ZM104,90.83h0v-.11A.2.2,0,0,1,104,90.83Zm-26.47.6a4.53,4.53,0,0,0,0,.52h0A3,3,0,0,1,77.55,91.43ZM41.88,30.12a22,22,0,1,0,22,22A22,22,0,0,0,41.88,30.12Zm0,40.09A18.12,18.12,0,1,1,60,52.1,18.13,18.13,0,0,1,41.88,70.21ZM135.8,30.12a22,22,0,1,0,22,22A22,22,0,0,0,135.8,30.12Zm0,40.09A18.12,18.12,0,1,1,153.92,52.1,18.14,18.14,0,0,1,135.8,70.21ZM41.88,30.12a22,22,0,1,0,22,22A22,22,0,0,0,41.88,30.12Zm0,40.09A18.12,18.12,0,1,1,60,52.1,18.13,18.13,0,0,1,41.88,70.21Zm0-40.09a22,22,0,1,0,22,22A22,22,0,0,0,41.88,30.12Zm0,40.09A18.12,18.12,0,1,1,60,52.1,18.13,18.13,0,0,1,41.88,70.21ZM135.8,30.12a22,22,0,1,0,22,22A22,22,0,0,0,135.8,30.12Zm0,40.09A18.12,18.12,0,1,1,153.92,52.1,18.14,18.14,0,0,1,135.8,70.21Zm0-40.09a22,22,0,1,0,22,22A22,22,0,0,0,135.8,30.12Zm0,40.09A18.12,18.12,0,1,1,153.92,52.1,18.14,18.14,0,0,1,135.8,70.21ZM41.88,30.12a22,22,0,1,0,22,22A22,22,0,0,0,41.88,30.12Zm0,40.09A18.12,18.12,0,1,1,60,52.1,18.13,18.13,0,0,1,41.88,70.21Zm0-40.09a22,22,0,1,0,22,22A22,22,0,0,0,41.88,30.12Zm0,40.09A18.12,18.12,0,1,1,60,52.1,18.13,18.13,0,0,1,41.88,70.21ZM135.8,30.12a22,22,0,1,0,22,22A22,22,0,0,0,135.8,30.12Zm0,40.09A18.12,18.12,0,1,1,153.92,52.1,18.14,18.14,0,0,1,135.8,70.21Zm0-40.09a22,22,0,1,0,22,22A22,22,0,0,0,135.8,30.12Zm0,40.09A18.12,18.12,0,1,1,153.92,52.1,18.14,18.14,0,0,1,135.8,70.21ZM41.88,30.12a22,22,0,1,0,22,22A22,22,0,0,0,41.88,30.12Zm0,40.09A18.12,18.12,0,1,1,60,52.1,18.13,18.13,0,0,1,41.88,70.21Zm0-40.09a22,22,0,1,0,22,22A22,22,0,0,0,41.88,30.12Zm0,40.09A18.12,18.12,0,1,1,60,52.1,18.13,18.13,0,0,1,41.88,70.21ZM135.8,30.12a22,22,0,1,0,22,22A22,22,0,0,0,135.8,30.12Zm0,40.09A18.12,18.12,0,1,1,153.92,52.1,18.14,18.14,0,0,1,135.8,70.21Zm0-40.09a22,22,0,1,0,22,22A22,22,0,0,0,135.8,30.12Zm0,40.09A18.12,18.12,0,1,1,153.92,52.1,18.14,18.14,0,0,1,135.8,70.21ZM41.88,30.12a22,22,0,1,0,22,22A22,22,0,0,0,41.88,30.12Zm0,40.09A18.12,18.12,0,1,1,60,52.1,18.13,18.13,0,0,1,41.88,70.21Z"/><path class="cls-1" d="M176.85,12.39a12.4,12.4,0,0,0-24.79,0,12.24,12.24,0,0,0,.26,2.49c-8.73-.78-19.63,1.72-32.5,7.45C96.54,32.69,76,32,60.45,20.23c-7.38-5.56-22.52-7.42-35.68-1.59v0A12.39,12.39,0,1,0,10,30.76c-4.61,6.84-8.26,18-4.64,35.16C10,87.76,22.51,98.8,43.64,99.57c-2.3,10.17-9.56,45.37-2.48,54.33a6.09,6.09,0,0,0,4.9,2.45A24.12,24.12,0,0,1,52,157c4.39,1,6.24,3.32,8.57,6.2l.11.14c2.6,3.25,5.77,7.2,13.64,9.47-5.8,7-11,17.56-10,22.88a4.46,4.46,0,0,0,2.55,3.46,9.52,9.52,0,0,0,4,.89,11.28,11.28,0,0,0,6-1.91c6.87-4.33,12.39-15.55,13.29-23.43h.59c1.28,0,2.54,0,3.75-.15,3.43,8.66,11.41,19.55,17.1,21.14a5.81,5.81,0,0,0,1.52.22,4.27,4.27,0,0,0,2.77-1,9.81,9.81,0,0,0,3.53-7.33c.25-6.38-4.23-13.58-8.73-18.53a42.61,42.61,0,0,0,8.46-8.53c.48-.61,1-1.2,1.42-1.75a16.8,16.8,0,0,1,3.52-3.38,6,6,0,0,1,2-.83c11-2.15,15.34-32.59,11.89-58.19,14.89-3,26.55-14.11,31.41-29.94,5.92-19.22,5.82-33.82-.22-42.56A12.41,12.41,0,0,0,176.85,12.39Zm-12.4-8.53a8.53,8.53,0,0,1,2,16.83,21.26,21.26,0,0,0-4.49-3.3,22.92,22.92,0,0,0-5.39-1.84,8.34,8.34,0,0,1-.61-3.16A8.54,8.54,0,0,1,164.45,3.86ZM3.86,18.61a8.53,8.53,0,1,1,17.05,0,8.34,8.34,0,0,1-.28,2.17,37.42,37.42,0,0,0-4.31,3.12,35,35,0,0,0-3.47,3.22h-.46A8.54,8.54,0,0,1,3.86,18.61Zm49.06,134.6h-.05a28.6,28.6,0,0,0-6.81-.71,2.23,2.23,0,0,1-1.87-1c-5.45-6.89.32-38.49,3.41-51.9a110.34,110.34,0,0,0,12.58-1.06c0,2,0,4.42,0,7.47C60.61,122,56.2,141.26,52.92,153.21Zm21.82,41.61c-2.27,1.45-4.36,1.7-6.37.79-.06,0-.24-.12-.35-.68-.74-4,4.65-14.75,10.51-21.2a57.11,57.11,0,0,0,7.7.81C85.33,181.36,80.36,191.27,74.74,194.82Zm40.74-7.43a5.79,5.79,0,0,1-2.12,4.51h0c-.06,0-.21.17-.78,0-3.8-1.06-10.8-10.08-14.17-17.91a30.78,30.78,0,0,0,8.86-2.93C111.53,175.63,115.69,182.31,115.48,187.39Zm1-58.28c-2.47,21.54.19,18.47-1.83,30.73a31.21,31.21,0,0,1-7.21,6.71l-.79.48a27.47,27.47,0,0,1-11.12,3.5h0a41.44,41.44,0,0,1-4.82.27c-.38,0-.77,0-1.16,0l-1.13,0h0a60.45,60.45,0,0,1-10.12-1h0c-8.87-1.76-11.77-5.38-14.57-8.87l-.12-.14-.55-.68c7.26-19.07,2.2-53.55.79-62,1.95-.3,3.85-.62,5.73-.93,2.22-.36,4.42-.72,6.63-1.06L78,95.78a124,124,0,0,1,27.69-1c2.59.18,5.31.46,8.1.8h0C116.32,97.32,119.45,103.06,116.45,129.11Zm-39-40.4c0-13.32,6.1-24.58,13.31-24.58s13.32,11.26,13.32,24.58c0,.67,0,1.36,0,2v.11h0A126.84,126.84,0,0,0,77.59,92h0a4.53,4.53,0,0,1,0-.52c0-.1,0-.2,0-.31s0-.38,0-.58,0-.36,0-.54C77.46,89.58,77.46,89.14,77.46,88.71Zm47.86,62a9.21,9.21,0,0,0-3.24,1.29c-4.52-10,1.19-27.76,3.61-39.72,1.33-6.55.88-11.55-.22-15.22a45.72,45.72,0,0,0,8.7-.13C137.71,123.36,132.35,149.39,125.32,150.75Zm40.37-85.47c-1.74,5.63-9,24.27-30.2,27.61a41.54,41.54,0,0,1-10.57.29c-1-.06-2-.2-3.4-.41l-.81-.12c-4.45-.68-8.75-1.21-12.82-1.55,0-.79.06-1.59.06-2.39,0-15.95-7.54-28.44-17.18-28.44S73.6,72.76,73.6,88.71c0,.51,0,1,0,1.52,0,.34,0,.66.06,1s0,.86.07,1.3l-4.88.79-5.71.93L60,94.68a103.54,103.54,0,0,1-13.93,1.08C25.28,95.74,13.55,86,9.14,65.13c-3.09-14.63-1-26.7,6.1-34.9a30.76,30.76,0,0,1,8-6.49l.63-.34A38.56,38.56,0,0,1,42,18.94c6.54,0,12.46,1.62,16.1,4.38C74.89,36,96.76,36.84,121.39,25.85c13.57-6,25.12-8.36,33.43-6.72a17.5,17.5,0,0,1,9.55,5l.38.39C171.31,31.84,171.63,45.93,165.69,65.28Z"/></svg>