<svg width="60" height="60" viewBox="0 0 60 60" fill="none" xmlns="http://www.w3.org/2000/svg">
<path d="M22.188 21.384C22.692 20.868 22.692 20.052 22.188 19.536C21.936 19.284 21.6 19.164 21.264 19.164C20.928 19.164 20.592 19.284 20.34 19.548L10.392 29.628C10.044 29.988 10.044 30.564 10.404 30.924L19.956 40.488C20.448 40.968 21.24 40.968 21.732 40.488C21.984 40.236 22.104 39.924 22.104 39.6C22.104 39.276 21.984 38.964 21.732 38.712L15.168 31.884H60V47.352C60 54.336 54.336 60 47.352 60H12.66C5.676 60 0 54.336 0 47.352V12.66C0 5.664 5.676 0 12.66 0H47.352C54.336 0 60 5.664 60 12.66V28.92H15.168L22.188 21.384Z" fill="#F5F7FF"/>
</svg>
