<svg width="60" height="60" viewBox="0 0 60 60" fill="none" xmlns="http://www.w3.org/2000/svg">
<path d="M37.812 38.616C37.308 39.132 37.308 39.948 37.812 40.464C38.064 40.716 38.4 40.836 38.736 40.836C39.072 40.836 39.408 40.716 39.66 40.452L49.608 30.372C49.956 30.012 49.956 29.436 49.596 29.076L40.044 19.512C39.552 19.032 38.76 19.032 38.268 19.512C38.016 19.764 37.896 20.076 37.896 20.4C37.896 20.724 38.016 21.036 38.268 21.288L44.832 28.116L-1.02731e-06 28.116L3.24946e-07 12.648C9.35506e-07 5.664 5.664 -9.35507e-07 12.648 -3.24946e-07L47.34 2.70792e-06C54.324 3.31849e-06 60 5.66401 60 12.648L60 47.34C60 54.336 54.324 60 47.34 60L12.648 60C5.664 60 -3.31953e-06 54.336 -2.70792e-06 47.34L-1.28643e-06 31.08L44.832 31.08L37.812 38.616Z" fill="#F5F7FF"/>
</svg>
